<svg width="586" height="362" viewBox="0 0 586 362" fill="none" xmlns="http://www.w3.org/2000/svg">
<g clip-path="url(#clip0_35_268)">
<path opacity="0.5" d="M344.097 628.442C321.043 629.502 297.585 627.667 275.651 634.579C245.901 643.955 227.296 671.681 199.417 682.417C176.315 691.313 139.694 680.992 116.824 674.583C95.6381 668.64 75.0885 660.667 54.5665 652.725C23.7046 640.762 -7.17442 628.792 -38.0364 616.829C-69.822 604.514 -102.088 591.917 -129.13 571.168C-156.165 550.402 -177.732 519.971 -179.796 485.97C-181.503 457.922 -169.574 434.446 -158.489 409.689C-148.895 388.279 -128.86 371.086 -122.549 347.955C-114.106 317.079 -134.205 286.033 -137.379 254.174C-141.218 215.736 -118.739 177.541 -86.2892 156.563C-53.8455 135.601 -13.0885 130.246 25.2239 135.258C42.1128 137.467 59.0257 141.566 75.9429 139.693C97.8959 137.253 117.635 125.255 137.348 116.203C169.399 101.516 207.179 99.8034 240.427 111.521C273.675 123.238 302.018 148.282 317.749 179.837C335.013 214.464 337.393 255.753 358.665 288.089C372.518 309.155 393.233 324.554 411.439 342.013C444.456 373.656 470.343 414.136 478.546 459.114C486.742 504.11 475.516 553.645 443.771 586.545C420.691 610.489 388.223 624.371 355.116 627.649C351.45 628.014 347.789 628.263 344.103 628.425L344.097 628.442Z" fill="#FFE9CA"/>
<path opacity="0.5" d="M354.977 309.733C378.031 324.241 400.362 340.903 416.238 363.034C432.114 385.166 440.926 413.593 434.697 440.104C430.143 459.498 417.77 476.636 401.883 488.654C390.515 497.245 377.324 503.476 366.76 512.942C365.815 513.776 364.891 514.657 364.001 515.552C339.037 540.638 339.33 581.131 322.419 612.225C308.663 637.512 283.55 655.588 256.007 664.004C228.464 672.421 198.712 671.73 170.574 665.623C137.212 658.366 102.693 657.229 69.81 647.688C37.0131 638.179 6.64052 622.055 -26.7945 614.065C-44.0716 609.945 -61.9192 607.527 -78.2705 600.568C-118.776 583.322 -144.388 535.29 -133.627 492.627C-128.819 473.544 -117.8 456.615 -111.356 438.02C-94.7254 390.035 -119.191 340.384 -103.352 291.393C-95.7448 267.894 -84.5296 241.307 -60.0488 232.957C-34.6149 224.265 -5.93389 226.584 17.8984 212.895C38.868 200.856 50.8043 178.852 63.1598 158.985C75.8395 138.577 90.8498 124.285 115.433 118.031C128.085 114.806 141.439 115.393 154.324 117.466C205.725 125.765 252.536 158.948 277.37 204.705C288.286 224.789 295.245 246.772 306.404 266.733C319.205 289.631 334.068 296.59 355.005 309.763L354.977 309.733Z" fill="#FFB593"/>
<circle cx="416" cy="250" r="17.5" stroke="#EC9D80"/>
<circle cx="383" cy="220" r="11.5" fill="#EC9D80" stroke="#EC9D80"/>
</g>
<defs>
<clipPath id="clip0_35_268">
<rect width="681" height="572" fill="white" transform="translate(-50.8186 0.433105) rotate(20.8712)"/>
</clipPath>
</defs>
</svg>
