<svg width="368" height="159" viewBox="0 0 368 159" fill="none" xmlns="http://www.w3.org/2000/svg">
<path opacity="0.5" d="M409.087 308.066C394.481 314.422 378.902 319.009 366.457 328.865C349.577 342.235 344.397 364.702 329.058 378.488C316.348 389.912 290.194 392.262 273.87 393.753C258.746 395.13 243.534 395.042 228.347 394.966C205.503 394.84 182.647 394.713 159.803 394.587C136.277 394.461 112.372 394.271 89.8318 387.536C67.2914 380.788 45.9008 366.459 36.2099 345.027C28.2121 327.349 30.1326 309.266 31.1939 290.565C32.1163 274.39 40.809 258.367 39.1917 241.889C37.0438 219.889 16.4492 204.802 6.56881 185.026C-5.35839 161.168 -0.253954 130.993 15.5142 109.473C31.2824 87.9658 56.2486 74.4828 82.1878 68.291C93.6222 65.5616 105.537 64.0452 115.986 58.6748C129.543 51.6995 139.322 39.101 149.809 28.4107C166.866 11.0483 190.809 0.648584 215.131 0.0294026C239.452 -0.589779 263.888 8.59685 281.792 25.0873C301.439 43.1826 313.126 69.2387 334.794 84.8699C348.907 95.0548 366.053 99.8945 382.086 106.68C411.159 118.975 437.805 138.726 454.155 165.73C470.504 192.747 475.444 227.471 463.062 256.51C454.066 277.638 436.542 294.583 415.998 304.844C413.724 305.981 411.424 307.042 409.087 308.053V308.066Z" fill="#FFE9CA"/>
<path opacity="0.5" d="M337.738 99.743C356.172 103.433 374.67 108.69 390.349 119.064C406.029 129.438 418.702 145.613 421.203 164.252C423.036 177.886 419.27 191.988 411.98 203.652C406.762 211.992 399.788 219.258 395.302 227.964C394.898 228.735 394.519 229.531 394.165 230.327C384.234 252.656 394.38 278.712 391.12 302.936C388.467 322.636 376.717 340.478 361.024 352.685C345.332 364.892 325.975 371.766 306.328 374.748C283.03 378.274 260.489 386.032 236.938 387.966C213.45 389.899 189.899 386.967 166.373 390.038C154.219 391.63 142.115 394.461 129.859 393.993C99.4975 392.831 71.1704 368.139 67.6201 337.964C66.0281 324.468 68.972 310.833 68.555 297.249C67.4811 262.196 39.4951 236.178 37.6631 200.67C36.7913 183.636 37.4862 163.721 51.2202 152.31C65.4848 140.445 84.5506 134.885 96.5536 120.189C107.116 107.262 109.403 90.1268 112.486 74.2681C115.645 57.9799 121.811 45.0655 136.126 34.9817C143.492 29.7881 152.248 26.8818 161.067 25.0495C196.254 17.7583 234.601 27.6526 261.867 51.0678C273.844 61.3411 283.737 73.8132 295.841 83.9476C309.727 95.573 321.023 96.407 337.764 99.7557L337.738 99.743Z" fill="#FFB593"/>
</svg>
