<svg width="136" height="35" viewBox="0 0 136 35" fill="none" xmlns="http://www.w3.org/2000/svg">
<path d="M55.7558 28.3C55.2158 28.3 54.6958 28.21 54.1958 28.03C53.6958 27.85 53.2858 27.53 52.9658 27.07C52.6458 26.61 52.4858 25.97 52.4858 25.15V11.56H55.1558V24.82C55.1558 25.28 55.2558 25.61 55.4558 25.81C55.6558 26.01 55.9758 26.11 56.4158 26.11C56.5958 26.11 56.7858 26.09 56.9858 26.05C57.1858 26.01 57.3758 25.96 57.5558 25.9L57.9158 27.85C57.5358 28.03 57.1658 28.15 56.8058 28.21C56.4458 28.27 56.0958 28.3 55.7558 28.3ZM63.9458 28.3C63.4058 28.3 62.8858 28.21 62.3858 28.03C61.8858 27.85 61.4758 27.53 61.1558 27.07C60.8358 26.61 60.6758 25.97 60.6758 25.15V11.56H63.3458V24.82C63.3458 25.28 63.4458 25.61 63.6458 25.81C63.8458 26.01 64.1658 26.11 64.6058 26.11C64.7858 26.11 64.9758 26.09 65.1758 26.05C65.3758 26.01 65.5658 25.96 65.7458 25.9L66.1058 27.85C65.7258 28.03 65.3558 28.15 64.9958 28.21C64.6358 28.27 64.2858 28.3 63.9458 28.3ZM68.9366 28V22.3C68.9366 21.04 69.2166 20.13 69.7766 19.57C70.3366 18.99 71.0466 18.59 71.9066 18.37L71.9366 18.28L68.6366 17.02V16.03C68.6366 15.21 68.9066 14.44 69.4466 13.72C69.9866 12.98 70.7566 12.39 71.7566 11.95C72.7766 11.49 73.9866 11.26 75.3866 11.26C76.6066 11.26 77.7366 11.46 78.7766 11.86C79.8166 12.24 80.6466 12.85 81.2666 13.69C81.9066 14.51 82.2266 15.59 82.2266 16.93V28H79.5566V17.2C79.5566 15.86 79.1466 14.91 78.3266 14.35C77.5266 13.77 76.5366 13.48 75.3566 13.48C74.1366 13.48 73.1666 13.74 72.4466 14.26C71.7266 14.76 71.3666 15.4 71.3666 16.18L74.6066 17.8L74.3666 19.24C73.6266 19.24 72.9766 19.49 72.4166 19.99C71.8766 20.47 71.6066 21.24 71.6066 22.3V28H68.9366ZM73.5463 8.95V7.63C73.9463 7.55 74.3563 7.44 74.7763 7.3C75.1963 7.14 75.5463 6.94 75.8263 6.7C76.1063 6.44 76.2463 6.13 76.2463 5.77C76.2463 5.53 76.1763 5.33 76.0363 5.17C75.8763 4.99 75.6363 4.9 75.3163 4.9C75.1163 4.9 74.9163 4.94 74.7163 5.02C74.4963 5.1 74.3063 5.17 74.1463 5.23L73.5463 3.58C73.9463 3.26 74.3963 3.05 74.8963 2.95C75.3763 2.85 75.7663 2.8 76.0663 2.8C76.8663 2.8 77.4963 3.02 77.9563 3.46C78.3963 3.9 78.6163 4.46 78.6163 5.14C78.6163 5.7 78.4763 6.19 78.1963 6.61C77.8963 7.01 77.5563 7.33 77.1763 7.57L76.8763 6.85H82.8463V8.95H73.5463ZM87.9449 14.56V9.19C87.9449 8.43 88.0149 7.82 88.1549 7.36C88.2949 6.88 88.4849 6.49 88.7249 6.19C88.9649 5.89 89.2249 5.64 89.5049 5.44L89.4749 5.32H84.2549L84.9449 3.22H93.4049V5.32C92.6649 5.32 92.0149 5.56 91.4549 6.04C90.8949 6.52 90.6149 7.4 90.6149 8.68V14.56H87.9449ZM91.2149 28.3C90.6749 28.3 90.1549 28.21 89.6549 28.03C89.1549 27.85 88.7449 27.53 88.4249 27.07C88.1049 26.61 87.9449 25.97 87.9449 25.15V11.56H90.6149V24.82C90.6149 25.28 90.7149 25.61 90.9149 25.81C91.1149 26.01 91.4349 26.11 91.8749 26.11C92.0549 26.11 92.2449 26.09 92.4449 26.05C92.6449 26.01 92.8349 25.96 93.0149 25.9L93.3749 27.85C92.9949 28.03 92.6249 28.15 92.2649 28.21C91.9049 28.27 91.5549 28.3 91.2149 28.3ZM101.625 28.3C99.7447 28.3 98.2847 27.85 97.2447 26.95C96.2247 26.03 95.7147 24.66 95.7147 22.84V21.01C95.7147 20.01 95.8547 19.22 96.1347 18.64C96.4147 18.06 96.7147 17.56 97.0347 17.14C97.3747 16.68 97.6647 16.28 97.9047 15.94C98.1647 15.6 98.2947 15.19 98.2947 14.71C98.2947 14.29 98.1847 13.99 97.9647 13.81C97.7647 13.63 97.5047 13.54 97.1847 13.54C96.9447 13.54 96.6847 13.58 96.4047 13.66C96.1447 13.74 95.8847 13.84 95.6247 13.96L95.0247 12.04C95.3847 11.8 95.8247 11.63 96.3447 11.53C96.8847 11.43 97.3547 11.38 97.7547 11.38C98.4947 11.38 99.0847 11.51 99.5247 11.77C99.9847 12.03 100.315 12.39 100.515 12.85C100.715 13.29 100.815 13.81 100.815 14.41C100.815 15.15 100.685 15.76 100.425 16.24C100.185 16.72 99.8947 17.19 99.5547 17.65C99.2147 18.15 98.9347 18.63 98.7147 19.09C98.4947 19.55 98.3847 20.15 98.3847 20.89V22.66C98.3847 23.58 98.5347 24.29 98.8347 24.79C99.1347 25.29 99.5347 25.64 100.035 25.84C100.535 26.02 101.065 26.11 101.625 26.11C102.625 26.11 103.385 25.88 103.905 25.42C104.445 24.94 104.715 24.21 104.715 23.23V11.56H107.385V23.38C107.385 24.92 106.895 26.13 105.915 27.01C104.955 27.87 103.525 28.3 101.625 28.3Z" fill="#494949"/>
<path d="M24.5337 23.3582L26.4852 21.1915C26.7901 20.8529 27.3207 21.0899 27.3207 21.5774V31.4224C27.3207 33.2167 26.0095 34.6725 24.3935 34.6725H2.92722C1.31115 34.6725 0 33.2167 0 31.4224V7.58858C0 5.79427 1.31115 4.3385 2.92722 4.3385H19.6062C20.0392 4.3385 20.2588 4.92081 19.9539 5.26613L18.0024 7.43284C17.9109 7.53441 17.7889 7.58858 17.6548 7.58858H2.92722V31.4224H24.3935V23.7374C24.3935 23.5952 24.4422 23.4598 24.5337 23.3582ZM34.0838 9.69435L18.0695 27.4749L12.5565 28.152C10.9588 28.3484 9.59883 26.852 9.77568 25.0645L10.3855 18.9435L26.3998 1.16292C27.7964 -0.387639 30.0527 -0.387639 31.4432 1.16292L34.0777 4.08798C35.4742 5.63853 35.4742 8.15057 34.0838 9.69435ZM28.0586 11.7866L24.5154 7.85264L13.1847 20.4399L12.7395 24.8613L16.7217 24.3671L28.0586 11.7866ZM32.0103 6.39011L29.3758 3.46505C29.1258 3.18744 28.7172 3.18744 28.4733 3.46505L26.5889 5.55728L30.132 9.49122L32.0164 7.39899C32.2604 7.11461 32.2604 6.66772 32.0103 6.39011Z" fill="#999999"/>
</svg>
