<svg width="51" height="39" viewBox="0 0 51 39" fill="none" xmlns="http://www.w3.org/2000/svg">
<path d="M46.2186 0H4.78123C2.1406 0 0 2.1406 0 4.78123V33.4686C0 36.1093 2.1406 38.2499 4.78123 38.2499H46.2186C48.8592 38.2499 50.9998 36.1093 50.9998 33.4686V4.78123C50.9998 2.1406 48.8592 0 46.2186 0ZM46.2186 4.78123V8.84578C43.9852 10.6645 40.4245 13.4926 32.8125 19.4532C31.135 20.7727 27.812 23.9427 25.4999 23.9058C23.1882 23.9431 19.8641 20.7722 18.1873 19.4532C10.5765 13.4935 7.01497 10.6648 4.78123 8.84578V4.78123H46.2186ZM4.78123 33.4686V14.981C7.06368 16.799 10.3005 19.3501 15.234 23.2133C17.4112 24.9271 21.2239 28.7103 25.4999 28.6873C29.7549 28.7103 33.5193 24.982 35.7649 23.2141C40.6984 19.351 43.9361 16.7992 46.2186 14.9811V33.4686H4.78123Z" fill="black" fill-opacity="0.08"/>
</svg>
