<svg width="303" height="242" viewBox="0 0 303 242" fill="none" xmlns="http://www.w3.org/2000/svg">
<path d="M120.542 123.671C123.496 126.625 128.284 126.625 131.238 123.671L136.583 118.325C139.538 115.371 139.538 110.583 136.583 107.629L119.7 90.75L136.579 73.8667C139.533 70.9126 139.533 66.1246 136.579 63.1705L131.233 57.8248C128.279 54.8707 123.491 54.8707 120.537 57.8248L92.962 85.3995C90.0079 88.3536 90.0079 93.1416 92.962 96.0957L120.542 123.671ZM165.921 118.329L171.267 123.675C174.221 126.629 179.009 126.629 181.963 123.675L209.538 96.1005C212.492 93.1464 212.492 88.3584 209.538 85.4043L181.963 57.8295C179.009 54.8754 174.221 54.8754 171.267 57.8295L165.921 63.1752C162.967 66.1293 162.967 70.9173 165.921 73.8714L182.8 90.75L165.921 107.633C162.967 110.587 162.967 115.375 165.921 118.329ZM294.938 196.625H180.337C179.988 205.988 173.384 211.75 164.862 211.75H136.125C127.291 211.75 120.518 203.493 120.636 196.625H7.5625C3.40312 196.625 0 200.028 0 204.188V211.75C0 228.387 13.6125 242 30.25 242H272.25C288.888 242 302.5 228.387 302.5 211.75V204.188C302.5 200.028 299.097 196.625 294.938 196.625ZM272.25 22.6875C272.25 10.2094 262.041 0 249.562 0H52.9375C40.4594 0 30.25 10.2094 30.25 22.6875V181.5H272.25V22.6875ZM242 151.25H60.5V30.25H242V151.25Z" fill="#8D8D8D"/>
</svg>
