<svg width="47" height="54" viewBox="0 0 47 54" fill="none" xmlns="http://www.w3.org/2000/svg">
<path d="M41.9643 23.5H39.4464V15.9464C39.4464 7.15491 32.2915 0 23.5 0C14.7085 0 7.55357 7.15491 7.55357 15.9464V23.5H5.03571C2.25558 23.5 0 25.7556 0 28.5357V48.6786C0 51.4587 2.25558 53.7143 5.03571 53.7143H41.9643C44.7444 53.7143 47 51.4587 47 48.6786V28.5357C47 25.7556 44.7444 23.5 41.9643 23.5ZM31.0536 23.5H15.9464V15.9464C15.9464 11.7815 19.335 8.39286 23.5 8.39286C27.665 8.39286 31.0536 11.7815 31.0536 15.9464V23.5Z" fill="white"/>
</svg>
