<svg width="39" height="12" viewBox="0 0 39 12" fill="none" xmlns="http://www.w3.org/2000/svg">
<g opacity="0.21">
<path d="M25.1613 5.66128C25.1613 2.53185 22.6294 -9.53674e-06 19.5 -9.53674e-06C16.3706 -9.53674e-06 13.8387 2.53185 13.8387 5.66128C13.8387 8.79072 16.3706 11.3226 19.5 11.3226C22.6294 11.3226 25.1613 8.79072 25.1613 5.66128ZM33.3387 11.3226C30.2093 11.3226 27.6774 8.79072 27.6774 5.66128C27.6774 2.53185 30.2093 -9.53674e-06 33.3387 -9.53674e-06C36.4681 -9.53674e-06 39 2.53185 39 5.66128C39 8.79072 36.4681 11.3226 33.3387 11.3226ZM5.66129 11.3226C2.53185 11.3226 0 8.79072 0 5.66128C0 2.53185 2.53185 -9.53674e-06 5.66129 -9.53674e-06C8.79073 -9.53674e-06 11.3226 2.53185 11.3226 5.66128C11.3226 8.79072 8.79073 11.3226 5.66129 11.3226Z" fill="black"/>
</g>
</svg>
