<svg width="262" height="262" viewBox="0 0 262 262" fill="none" xmlns="http://www.w3.org/2000/svg">
<path d="M89.8812 110.31H171.591C176.106 110.31 179.762 106.654 179.762 102.139V93.9683C179.762 89.4538 176.106 85.7973 171.591 85.7973H89.8812C85.3667 85.7973 81.7102 89.4538 81.7102 93.9683V102.139C81.7102 106.654 85.3667 110.31 89.8812 110.31ZM81.7102 151.165C81.7102 155.68 85.3667 159.336 89.8812 159.336H171.591C176.106 159.336 179.762 155.68 179.762 151.165V142.994C179.762 138.48 176.106 134.823 171.591 134.823H89.8812C85.3667 134.823 81.7102 138.48 81.7102 142.994V151.165ZM130.736 213.025C122.351 213.025 113.965 210.441 106.805 205.268L0 128.113V236.961C0 250.5 10.9747 261.474 24.5131 261.474H236.96C250.498 261.474 261.473 250.5 261.473 236.961V128.113L154.667 205.268C147.507 210.436 139.122 213.025 130.736 213.025ZM252.081 83.2183C247.561 79.6741 243.277 76.3393 236.96 71.5695V49.0277C236.96 35.4893 225.985 24.5146 212.447 24.5146H172.843C171.29 23.3911 169.845 22.3391 168.226 21.1645C159.641 14.8984 142.584 -0.177165 130.736 0.00157566C118.888 -0.177165 101.836 14.8984 93.2467 21.1645C91.6278 22.3391 90.1825 23.3911 88.63 24.5146H49.0261C35.4878 24.5146 24.5131 35.4893 24.5131 49.0277V71.5695C18.1958 76.3342 13.9112 79.6741 9.39157 83.2183C6.46613 85.5109 4.1004 88.4389 2.47334 91.7806C0.846276 95.1223 0.00050344 98.7903 0 102.507L0 107.946L49.0261 143.362V49.0277H212.447V143.362L261.473 107.946V102.507C261.473 94.9795 258.01 87.8656 252.081 83.2183Z" fill="#8D8D8D"/>
</svg>
