<svg width="47" height="47" viewBox="0 0 47 47" fill="none" xmlns="http://www.w3.org/2000/svg">
<path d="M45.6596 33.2118L35.3782 28.8055C34.939 28.6183 34.4509 28.5789 33.9873 28.6931C33.5237 28.8074 33.1098 29.0691 32.8079 29.4389L28.2547 35.0019C21.1088 31.6327 15.3581 25.882 11.9889 18.7362L17.5519 14.1829C17.9224 13.8816 18.1847 13.4676 18.299 13.0038C18.4133 12.5401 18.3734 12.0517 18.1853 11.6126L13.779 1.33116C13.5725 0.857858 13.2074 0.471421 12.7465 0.238485C12.2857 0.00554935 11.758 -0.0592839 11.2545 0.0551647L1.70745 2.25833C1.22199 2.37043 0.788866 2.64377 0.478761 3.03373C0.168657 3.4237 -0.00011183 3.90726 5.5595e-08 4.40549C5.5595e-08 27.9518 19.0849 47 42.5945 47C43.0929 47.0003 43.5767 46.8316 43.9668 46.5215C44.357 46.2114 44.6304 45.7781 44.7426 45.2925L46.9457 35.7455C47.0594 35.2395 46.9932 34.7097 46.7585 34.2473C46.5238 33.7849 46.1352 33.4187 45.6596 33.2118Z" fill="white"/>
</svg>
