<svg width="215" height="240" viewBox="0 0 215 240" fill="none" xmlns="http://www.w3.org/2000/svg">
<g clip-path="url(#clip0_28_1158)">
<path d="M107.5 240C166.871 240 215 191.914 215 132.597C215 73.2797 166.871 25.1937 107.5 25.1937C48.1294 25.1937 0 73.2797 0 132.597C0 191.914 48.1294 240 107.5 240Z" fill="#F59FA1"/>
<path d="M63.3093 117.089C51.7225 123.984 42.5812 134.895 37.8257 147.502C33.0701 160.114 32.7371 174.335 36.8885 187.155C36.8885 187.155 37.353 188.593 38.0846 190.851C41.5742 193.656 45.9147 195.738 50.0989 197.352C59.2237 200.875 68.7143 203.463 78.3652 205.068C85.8377 192.502 89.6356 177.772 89.1136 163.161C88.5505 147.342 82.9318 131.737 73.2767 119.188L63.3093 117.085V117.089Z" fill="#4F3938"/>
<path d="M89.1179 163.165C88.5547 147.346 82.936 131.741 73.281 119.192L63.3136 117.089C57.6537 120.456 52.5817 124.781 48.3152 129.795C52.4378 137.133 69.2653 141.457 76.9597 144.385C79.2614 145.227 78.8668 152.459 79.4423 154.693C63.1779 155.65 43.0253 164.294 34.6362 177.427C35.1171 180.724 35.8693 183.981 36.8969 187.155C36.8969 187.155 37.3613 188.593 38.093 190.851C41.5826 193.656 45.923 195.738 50.1073 197.352C59.2321 200.875 68.7227 203.463 78.3736 205.068C85.842 192.502 89.644 177.772 89.122 163.161L89.1179 163.165Z" fill="#473432"/>
<path d="M61.3982 118.009C61.279 113.763 59.5074 109.393 55.9726 106.864C52.6351 104.474 47.9658 103.891 44.3611 106.051C40.7523 108.211 38.952 112.802 39.8151 116.855C40.6906 120.949 44.2542 124.214 48.2905 125.109C52.9105 126.132 57.8633 123.984 60.6172 120.227C61.5872 118.9 59.7006 117.147 58.7224 118.481C56.7659 121.146 53.6832 122.888 50.3251 122.789C47.1438 122.695 44.0446 120.608 42.7745 117.689C41.4798 114.72 42.3389 111.061 44.768 108.925C47.2588 106.736 50.9745 106.901 53.7325 108.469C57.1317 110.404 58.7183 114.399 58.821 118.149C58.8662 119.808 61.4434 119.672 61.3941 118.013L61.3982 118.009Z" fill="#C8375B"/>
<path d="M60.8227 120.592C63.9013 118.448 67.6252 116.863 71.4518 117.225C74.8798 117.549 78.4105 119.693 79.5491 123.064C80.6506 126.329 79.0969 130.14 76.2485 131.992C73.2398 133.951 69.0514 133.565 66.2154 131.462C62.9271 129.023 61.2049 123.725 62.0928 119.832C62.4586 118.218 59.939 117.685 59.5691 119.303C58.5744 123.672 60.2925 129.376 63.5314 132.546C66.7127 135.655 71.8629 136.76 75.9937 135.023C80.0464 133.318 82.825 128.941 82.4633 124.522C82.0851 119.951 78.4722 116.514 74.2633 115.18C69.1748 113.566 63.6505 115.488 59.4416 118.416C58.0811 119.364 59.4622 121.541 60.8227 120.588V120.592Z" fill="#C8375B"/>
<path d="M58.9857 119.335C59.4666 131.249 57.2429 143.195 52.475 154.13C51.8174 155.642 54.1027 156.832 54.7685 155.309C59.7214 143.95 62.0602 131.581 61.5628 119.2C61.4971 117.545 58.9199 117.676 58.9898 119.335H58.9857Z" fill="#C8375B"/>
<path d="M59.0184 119.541C51.4103 128.123 44.9243 137.671 39.7659 147.913C39.0219 149.391 41.3113 150.574 42.0594 149.092C47.1191 139.047 53.4531 129.704 60.9173 121.286C62.0189 120.046 60.124 118.296 59.0225 119.541H59.0184Z" fill="#C8375B"/>
<path d="M143.977 96.0594C134.232 105.373 127.766 118.05 125.962 131.405C124.154 144.759 127.018 158.697 133.94 170.261C133.94 170.261 134.717 171.554 135.934 173.595C139.966 175.546 144.66 176.606 149.099 177.246C158.783 178.638 168.61 179.037 178.376 178.441C182.84 164.524 183.239 149.317 179.461 135.195C175.368 119.902 166.395 105.952 154.167 95.8828L143.981 96.0676L143.977 96.0594Z" fill="#4F3938"/>
<path d="M152.712 96.3345C149.189 93.9486 144.606 92.8357 140.488 94.2279C136.595 95.5379 133.398 98.9874 133.044 103.172C132.691 107.361 135.366 111.5 139.168 113.167C143.003 114.847 147.738 113.865 150.825 111.11C154.352 107.96 155.503 102.687 154.056 98.2605C153.546 96.7 151.018 97.2051 151.528 98.7779C152.551 101.919 152.165 105.439 150.122 108.104C148.186 110.625 144.68 111.923 141.569 111.25C138.404 110.564 135.929 107.73 135.613 104.515C135.288 101.217 137.59 98.2975 140.479 96.9793C144.039 95.3531 148.207 96.4002 151.318 98.5028C152.691 99.435 154.084 97.2667 152.712 96.3345Z" fill="#C8375B"/>
<path d="M154.475 98.3098C154.532 94.5605 155.416 90.6182 157.948 87.723C160.213 85.1318 164.015 83.522 167.422 84.5692C170.719 85.5835 172.905 89.0659 172.749 92.4579C172.585 96.0429 169.823 99.2132 166.456 100.285C162.556 101.529 157.245 99.8292 154.602 96.8396C153.505 95.5994 151.598 97.3324 152.699 98.5767C155.671 101.936 161.306 103.874 165.774 103.098C170.16 102.334 174.064 98.7985 175.063 94.4373C176.046 90.1541 174.114 85.3453 170.308 83.058C166.374 80.6967 161.471 81.6166 157.932 84.253C153.649 87.4397 151.984 93.041 151.906 98.166C151.881 99.821 154.454 99.9729 154.479 98.3139L154.475 98.3098Z" fill="#C8375B"/>
<path d="M152.379 99.0695C162.342 105.64 170.747 114.416 176.847 124.67C177.69 126.087 179.991 124.929 179.145 123.499C172.811 112.851 164.122 103.726 153.772 96.9012C152.387 95.9896 150.994 98.1537 152.379 99.0695Z" fill="#C8375B"/>
<path d="M152.568 99.1598C155.096 110.342 159.07 121.179 164.377 131.343C165.145 132.813 167.443 131.647 166.674 130.173C161.467 120.202 157.574 109.611 155.096 98.6424C154.73 97.0244 152.202 97.5418 152.568 99.1598Z" fill="#C8375B"/>
<path d="M86.027 153.58C81.3619 152.644 72.2946 154.2 65.7798 159.732C60.2885 164.397 50.0087 204.415 45.7916 212.784C41.7882 220.735 54.1519 233.276 60.3995 229.42C66.3923 225.72 81.4317 181.85 81.4317 181.85C81.4317 181.85 90.6963 154.508 86.0311 153.576L86.027 153.58Z" fill="#F1F1F1"/>
<path d="M137.175 152.102C141.84 151.165 152.326 153.161 157.422 158.253C162.342 163.169 176.88 199.253 181.097 207.622C185.101 215.573 172.737 228.114 166.49 224.258C160.497 220.558 141.77 180.371 141.77 180.371C141.77 180.371 132.506 153.03 137.171 152.098L137.175 152.102Z" fill="#F1F1F1"/>
<path d="M99.4261 171.448H125.991V124.851H99.4261V171.448Z" fill="#F8D1C0"/>
<path d="M99.4263 124.855V152.517C106.632 158.401 118.498 158.75 125.066 151.564C125.387 151.141 125.691 150.702 125.991 150.258V124.855H99.4263Z" fill="#E0927A"/>
<path d="M76.6268 184.424C76.6268 175.887 79.3889 156.204 79.3437 155.535C84.5884 152.48 93.8036 150.11 98.5181 149.137C99.0565 153.518 101.219 158.496 104.022 162.881C106.648 166.988 109.883 167.974 113.081 168.027C116.279 168.08 118.634 166.75 121.49 163.259C124.142 160.019 124.758 155.814 126.48 149.441C132.206 151.494 137.812 151.03 143.538 153.083C147.332 160.713 148.996 178.86 150.028 187.184C150.677 192.424 153.694 229.133 151.808 233.206C149.921 237.28 133.254 239.35 128.293 239.752C109.661 241.272 86.4421 239.42 83.2649 238.368C70.1202 234.015 72.2247 232.841 72.7261 226.64C72.9851 223.474 76.6309 192.958 76.6309 184.42L76.6268 184.424Z" fill="#F1F1F1"/>
<path d="M148.31 173.263C148.076 182.096 149.769 200.489 145.922 201.725C142.823 202.723 101.535 204.136 80.3095 201.615C78.7928 201.615 77.8598 199.434 77.8598 195.056C77.8598 186.63 78.427 181.131 77.2309 174.425C76.8774 178.224 76.6226 181.837 76.6226 184.424C76.6226 192.962 72.9727 223.478 72.7178 226.644C72.2164 232.841 70.1119 234.019 83.2566 238.372C86.4297 239.424 109.649 241.276 128.285 239.756C133.246 239.354 149.909 237.284 151.799 233.21C153.686 229.137 150.673 192.424 150.02 187.188C149.592 183.747 149.058 178.626 148.306 173.267L148.31 173.263Z" fill="#D5DDE3"/>
<path d="M99.1799 148.151C99.1799 148.151 95.119 148.603 94.449 150.968C93.779 153.334 90.7539 167.735 96.7014 172.729C102.653 177.723 112.826 168.454 113.073 168.027C113.319 167.6 101.161 161.764 99.1758 148.151H99.1799Z" fill="#E6E9EB"/>
<path d="M126.242 148.246C126.242 148.246 130.303 148.697 130.973 151.063C131.643 153.428 135.235 171.431 127.631 173.944C121.038 176.125 113.989 168.433 113.742 168.006C113.496 167.579 124.257 161.855 126.246 148.246H126.242Z" fill="#E6E9EB"/>
<path d="M117.315 176.129C117.315 176.79 116.78 177.324 116.118 177.324C115.457 177.324 114.922 176.79 114.922 176.129C114.922 175.468 115.457 174.934 116.118 174.934C116.78 174.934 117.315 175.468 117.315 176.129Z" fill="#CAD6E3"/>
<path d="M117.315 193.861C117.315 194.523 116.78 195.056 116.118 195.056C115.457 195.056 114.922 194.523 114.922 193.861C114.922 193.2 115.457 192.666 116.118 192.666C116.78 192.666 117.315 193.2 117.315 193.861Z" fill="#CAD6E3"/>
<path d="M117.315 211.594C117.315 212.255 116.78 212.789 116.118 212.789C115.457 212.789 114.922 212.255 114.922 211.594C114.922 210.932 115.457 210.398 116.118 210.398C116.78 210.398 117.315 210.932 117.315 211.594Z" fill="#CAD6E3"/>
<path d="M117.315 229.326C117.315 229.987 116.78 230.521 116.118 230.521C115.457 230.521 114.922 229.987 114.922 229.326C114.922 228.664 115.457 228.131 116.118 228.131C116.78 228.131 117.315 228.664 117.315 229.326Z" fill="#CAD6E3"/>
<path d="M113.442 239.058H113.956L113.738 168.01L113.253 168.023L113.442 239.058Z" fill="#CAD6E3"/>
<path d="M57.136 116.42C44.6449 116.12 38.1301 101.595 39.7701 91.4436C40.6333 86.5815 45.6848 85.4563 51.024 86.2776C62.0971 87.8175 68.4269 98.6465 64.5797 105.521C62.9192 110.133 60.1365 116.325 57.136 116.42Z" fill="#EFAF94"/>
<path d="M55.5331 105.936C55.3481 106.515 52.5984 108.096 50.7734 106.769C48.6484 104.034 52.6271 100.963 51.1721 98.4741C49.3471 97.1476 47.0413 94.9958 48.7512 94.3305C52.1709 93 56.0469 99.6321 58.8665 95.4804C59.853 94.0266 60.5887 92.1705 60.7449 90.2158C62.0068 91.4724 63.0549 92.8686 63.8523 94.3264C62.6439 98.856 58.8254 102.782 55.529 105.927L55.5331 105.936Z" fill="#E0927A"/>
<path d="M100.803 147.704C86.0146 143.08 64.9577 132.534 58.8252 116.958C58.5374 106.465 58.6813 95.9649 59.2526 85.485C59.9185 73.3008 61.2379 60.8826 66.31 49.7825C71.8383 37.6805 81.8221 27.6687 93.9145 22.1002C108.411 15.4229 125.794 15.1929 140.369 21.8497C152.071 26.8925 161.635 37.0891 165.141 49.3801C166.67 54.7391 167.135 60.3487 167.209 65.9213C167.336 75.2309 166.395 84.5528 164.414 93.6529C163.247 99.0284 165.926 104.613 166.379 109.948C168.536 135.285 135.067 151.182 113.262 150.348C110.541 150.246 106.069 149.35 100.803 147.704Z" fill="#F7D0BF"/>
<path d="M78.641 118.834C76.3762 113.455 76.3639 106.819 80.0714 101.554C85.8627 93.4066 96.2987 90.0474 105.904 89.6162C125.913 88.8031 145.552 87.333 165.38 88.7087C166.695 81.1895 167.308 73.5513 167.205 65.9172C167.131 60.3446 166.667 54.735 165.137 49.376C161.631 37.085 152.067 26.8884 140.365 21.8456C125.794 15.1888 108.408 15.4188 93.9106 22.0961C81.8182 27.6646 71.8344 37.6764 66.3061 49.7784C61.234 60.8826 59.9146 73.2967 59.2487 85.4809C58.6774 95.9609 58.5335 106.461 58.8213 116.954C64.9538 132.53 86.0107 143.08 100.799 147.699C106.065 149.346 110.537 150.241 113.258 150.344C116.899 150.484 120.866 150.155 124.935 149.391C105.366 147.014 86.2779 138.152 78.6328 118.83L78.641 118.834Z" fill="#EFAF94"/>
<path d="M166.379 109.948C166.034 105.874 164.389 101.657 164.151 97.4967C162.552 98.4617 161.438 100.018 162.104 102.08C165.824 111.923 164.155 122.419 159.161 131.002C164.151 125.093 167.061 118.001 166.379 109.952V109.948Z" fill="#F7D5C7"/>
<path d="M36.675 72.0321C37.2463 66.3281 38.2821 59.2237 40.6948 52.3206C45.2038 39.4301 53.9134 27.2254 69.4174 26.0098C89.6975 6.91431 122.678 9.44395 146.041 21.0902C171.447 33.7548 184.743 63.819 172.289 93.9201C172.289 93.9201 165.614 94.9673 163.88 96.0268C165.014 81.0419 161.101 69.1575 157.147 61.7164C157.907 69.33 159.034 77.2803 157.242 84.8076C154.714 84.6557 152.243 84.5407 149.818 84.4627C149.855 79.6293 149.296 74.8082 147.566 70.0979C148.503 74.9355 147.636 79.7319 146.025 84.3641C144.302 84.3313 142.605 84.3149 140.916 84.319C142.399 78.0441 141.15 71.5968 138.906 65.6177C140.422 71.642 140.077 78.2289 138.137 84.3354C126.871 84.4791 116.036 85.4072 103.849 87.0662C103.117 83.2102 104.355 79.1734 103.45 75.2435C103.265 79.2802 101.975 83.3498 101.223 87.4358C96.4794 88.1257 91.7567 88.9265 87.0669 89.8423C84.983 82.1178 85.7845 73.9786 86.1462 66.0119C81.5961 73.9458 78.275 82.9104 77.9051 91.7888C65.0975 94.7291 52.5529 98.5277 40.4276 103.176C39.2603 103.624 35.5857 82.9474 36.675 72.0362V72.0321Z" fill="#4F3938"/>
<path d="M146.045 21.0858C122.683 9.43962 89.7018 6.90997 69.4218 26.0055C53.9178 27.221 45.2041 39.4258 40.6992 52.3163C38.2865 59.2153 37.2507 66.3197 36.6794 72.0278C35.5901 82.9389 39.2647 103.615 40.432 103.168C43.2887 102.071 46.1659 101.028 49.0677 100.026C47.3209 98.663 45.8412 96.9013 44.6492 94.9794C36.1861 80.2655 37.9905 62.7757 46.4865 48.4479C52.5656 38.1733 69.9438 38.1938 78.7685 46.0661C82.55 36.0871 85.3285 24.0918 96.307 19.9401C109.608 14.1786 127.59 20.4329 139.67 26.7324C152.651 33.5 163.744 44.5713 168.8 58.4925C172.795 69.4899 168.631 79.8426 164.081 89.9324C164.106 91.8995 164.048 93.9281 163.892 96.0183C165.627 94.9588 172.302 93.9117 172.302 93.9117C184.756 63.8105 171.455 33.7464 146.054 21.0817L146.045 21.0858Z" fill="#473432"/>
<path d="M130.931 52.4641C137.853 61.2193 140.693 72.1099 138.811 82.6392C138.589 83.8793 136.349 83.5672 136.571 82.3271C138.363 72.307 135.654 61.9297 129.069 53.6016C128.256 52.5709 130.113 51.4293 130.931 52.4641Z" fill="#3C2B2B"/>
<path d="M101.247 57.2113C104.959 66.6892 105.464 77.0131 102.632 86.7867C102.283 87.9982 100.039 87.6943 100.392 86.4746C103.13 77.0254 102.706 67.0793 99.1141 57.9094C98.6496 56.7267 100.783 56.0245 101.247 57.2113Z" fill="#3C2B2B"/>
<path d="M150.653 52.8829C158.939 60.8045 164.27 69.6459 165.421 81.5427C165.943 86.9469 164.8 92.7084 164.504 95.7719C164.385 97.008 162.063 96.5398 162.346 95.312C165.314 82.4707 161.385 70.1305 155.166 61.3507C153.398 58.8539 151.372 56.5008 149.099 54.3243C148.137 53.4045 149.679 51.9549 150.649 52.8829H150.653Z" fill="#3C2B2B"/>
<path d="M67.8142 46.1482C68.5089 45.0476 70.5722 45.8484 69.8693 46.9613C63.1038 57.6753 59.5855 69.7445 59.7745 81.8589C59.7951 83.1032 57.5303 83.3208 57.5098 82.0683C57.3125 69.609 60.8514 57.1743 67.8142 46.1482Z" fill="#3C2B2B"/>
<path d="M123.878 56.6486C126.912 59.9052 128.252 64.0774 127.709 68.2374C127.545 69.4858 125.309 69.1655 125.469 67.9253C125.95 64.2622 124.676 60.6361 122.016 57.7862C121.108 56.8129 122.974 55.6795 123.878 56.6486Z" fill="#3C2B2B"/>
<path d="M55.1751 48.029C55.8081 46.8956 57.8673 47.7005 57.2302 48.8421C53.3912 55.7042 51.3772 63.2233 51.4142 70.7999C51.4183 72.0442 49.1576 72.2618 49.1494 71.0093C49.1124 63.0796 51.1511 55.2237 55.1751 48.029Z" fill="#3C2B2B"/>
<path d="M103.861 120.485C107.934 115.807 107.44 108.715 102.758 104.645C98.0751 100.576 90.9771 101.069 86.9037 105.747C82.8304 110.426 83.3243 117.517 88.0068 121.587C92.6893 125.657 99.7873 125.163 103.861 120.485Z" fill="#F09190"/>
<path d="M91.88 109.71C91.3826 111.028 90.8853 112.342 90.3879 113.66C90.3181 113.841 90.2811 114.009 90.3468 114.202C90.4003 114.366 90.54 114.543 90.7003 114.617C91.0168 114.761 91.5142 114.679 91.658 114.309C92.1554 112.991 92.6527 111.677 93.15 110.358C93.2199 110.178 93.2569 110.009 93.1911 109.816C93.1377 109.652 92.998 109.475 92.8377 109.402C92.5212 109.258 92.0238 109.34 91.88 109.71Z" fill="#F47170"/>
<path d="M97.4616 107.237C96.6395 109.964 95.8216 112.687 94.9995 115.414C94.8885 115.779 95.1886 116.182 95.5421 116.26C95.9408 116.346 96.2778 116.087 96.3888 115.717C97.2108 112.991 98.0288 110.268 98.8508 107.541C98.9618 107.176 98.6618 106.773 98.3083 106.695C97.9096 106.609 97.5725 106.868 97.4616 107.237Z" fill="#F47170"/>
<path d="M149.453 121.849C155.477 121.849 160.361 116.969 160.361 110.95C160.361 104.931 155.477 100.051 149.453 100.051C143.428 100.051 138.544 104.931 138.544 110.95C138.544 116.969 143.428 121.849 149.453 121.849Z" fill="#F09190"/>
<path d="M146.707 107.073C146.148 109.048 145.589 111.024 145.03 112.999C144.927 113.356 145.207 113.742 145.556 113.82C145.938 113.902 146.275 113.652 146.378 113.295L148.055 107.369C148.158 107.012 147.878 106.626 147.529 106.548C147.147 106.465 146.81 106.716 146.707 107.073Z" fill="#F47170"/>
<path d="M152.025 107.357L150.846 111.328C150.743 111.673 151.023 112.087 151.372 112.149C151.762 112.219 152.083 111.993 152.194 111.623L153.374 107.652C153.476 107.307 153.197 106.893 152.847 106.831C152.457 106.761 152.136 106.987 152.025 107.357Z" fill="#F47170"/>
<path d="M149.741 99.5721C150.127 94.875 147.598 90.8344 144.094 90.5471C140.589 90.2599 137.436 93.8348 137.05 98.5319C136.664 103.229 139.193 107.27 142.697 107.557C146.202 107.844 149.355 104.269 149.741 99.5721Z" fill="#533838"/>
<path d="M110.712 99.8049C111.097 95.1078 108.569 91.0672 105.064 90.78C101.56 90.4927 98.4063 94.0676 98.0206 98.7647C97.6349 103.462 100.163 107.502 103.668 107.79C107.172 108.077 110.326 104.502 110.712 99.8049Z" fill="#533838"/>
<path d="M123.299 102.051C124.199 101.714 123.681 100.634 123.344 100.059C122.937 99.3693 124.043 98.7903 124.446 99.4802C124.824 100.125 125.132 100.856 125.025 101.616C124.931 102.281 124.52 102.909 123.879 103.151C123.562 103.271 123.213 103.213 123.04 102.889C122.896 102.622 122.987 102.166 123.303 102.051H123.299Z" fill="#533838"/>
<path d="M141.363 84.1134C141.746 84.0888 142.132 84.0806 142.514 84.097C142.708 84.1052 142.897 84.1175 143.09 84.134C143.184 84.1422 143.279 84.1545 143.377 84.1627C143.41 84.1627 143.468 84.1832 143.501 84.1791C143.357 84.1586 143.328 84.1545 143.41 84.1668C143.439 84.1668 143.464 84.175 143.493 84.1791C144.265 84.3023 145.026 84.5077 145.753 84.7869C145.844 84.8198 145.934 84.8567 146.02 84.8937C146.045 84.9019 146.119 84.9224 146.135 84.943C146.135 84.943 145.946 84.8567 146.061 84.9142C146.246 85.0004 146.436 85.0867 146.62 85.1811C146.962 85.3577 147.299 85.5466 147.619 85.7561C147.78 85.8587 147.94 85.9696 148.096 86.0805C148.174 86.138 148.252 86.1913 148.33 86.2529C148.355 86.2694 148.413 86.3022 148.429 86.3269C148.326 86.2447 148.306 86.2283 148.367 86.2817C148.388 86.2981 148.408 86.3145 148.433 86.3351C148.733 86.5774 149.017 86.832 149.288 87.103C149.6 87.4151 149.884 87.7477 150.164 88.0845C150.262 88.2036 150.053 87.9284 150.143 88.0557C150.176 88.1009 150.209 88.142 150.242 88.1871C150.307 88.2775 150.369 88.3637 150.431 88.4582C150.562 88.6512 150.686 88.8483 150.805 89.0495C151.097 89.5464 151.808 89.7764 152.313 89.4561C152.815 89.1358 153.033 88.4828 152.72 87.949C150.953 84.943 147.812 82.7542 144.38 82.1135C143.39 81.9287 142.387 81.8466 141.384 81.9164C140.809 81.9534 140.25 82.3846 140.274 83.0129C140.295 83.5755 140.755 84.1627 141.372 84.1216L141.363 84.1134Z" fill="#533838"/>
<path d="M97.9099 91.1973C98.1195 90.8769 98.3456 90.5648 98.5922 90.2692C98.7155 90.1213 98.8388 89.9776 98.9704 89.8339C99.0361 89.7641 99.1019 89.6943 99.1677 89.6244C99.1923 89.5998 99.2375 89.567 99.254 89.5382C99.1512 89.6409 99.1307 89.6614 99.1882 89.6039C99.2088 89.5834 99.2293 89.567 99.2458 89.5464C99.8089 89.0044 100.434 88.5239 101.095 88.1132C101.178 88.0639 101.26 88.0147 101.342 87.9654C101.363 87.9531 101.424 87.9038 101.449 87.9038C101.449 87.9038 101.264 88.0023 101.379 87.9449C101.56 87.8504 101.741 87.7519 101.93 87.6615C102.275 87.4931 102.633 87.3453 102.99 87.2098C103.171 87.1441 103.352 87.0825 103.537 87.025C103.627 86.9962 103.722 86.9675 103.812 86.9429C103.841 86.9346 103.903 86.9059 103.931 86.91C103.804 86.9429 103.779 86.9511 103.857 86.9305C103.882 86.9223 103.911 86.9182 103.936 86.91C104.31 86.8197 104.688 86.7457 105.066 86.6924C105.502 86.6308 105.937 86.6061 106.377 86.5897C106.533 86.5815 106.184 86.5897 106.34 86.5897C106.394 86.5897 106.451 86.5897 106.504 86.5897C106.615 86.5897 106.722 86.5979 106.833 86.602C107.068 86.6143 107.298 86.6349 107.532 86.6636C108.107 86.7293 108.716 86.3063 108.765 85.7068C108.814 85.1154 108.424 84.5446 107.807 84.4748C104.342 84.0683 100.701 85.2427 98.1154 87.5876C97.3715 88.2652 96.6974 89.0126 96.1466 89.8544C95.8301 90.3349 95.8342 91.0412 96.348 91.4026C96.8084 91.7229 97.5564 91.7147 97.8976 91.2014L97.9099 91.1973Z" fill="#533838"/>
<path d="M131.31 109.5C127.409 112.445 122.037 112.921 117.742 110.523C116.254 109.693 114.927 111.985 116.419 112.814C121.466 115.631 128.018 115.282 132.654 111.783C133.998 110.769 132.675 108.474 131.31 109.5Z" fill="#533838"/>
<g style="mix-blend-mode:soft-light">
<path d="M91.1855 108.445C91.1732 109.439 88.9084 110.211 86.1257 110.174C83.3431 110.137 81.0989 109.303 81.1153 108.309C81.1277 107.316 83.3924 106.543 86.1751 106.58C88.9577 106.617 91.2019 107.451 91.1855 108.445Z" fill="#F7ECE9"/>
</g>
<g style="mix-blend-mode:soft-light">
<path d="M161.66 106.564C161.648 107.34 160.518 107.956 159.132 107.94C157.747 107.919 156.633 107.274 156.642 106.498C156.654 105.722 157.784 105.106 159.169 105.123C160.555 105.143 161.669 105.788 161.66 106.564Z" fill="#F7ECE9"/>
</g>
</g>
<defs>
<clipPath id="clip0_28_1158">
<rect width="215" height="240" fill="white"/>
</clipPath>
</defs>
</svg>
