<svg width="48" height="55" viewBox="0 0 48 55" fill="none" xmlns="http://www.w3.org/2000/svg">
<path d="M23.6875 27.0714C31.1639 27.0714 37.2232 21.0121 37.2232 13.5357C37.2232 6.05935 31.1639 0 23.6875 0C16.2111 0 10.1518 6.05935 10.1518 13.5357C10.1518 21.0121 16.2111 27.0714 23.6875 27.0714ZM33.1625 30.4554H31.3965C29.0489 31.534 26.4369 32.1473 23.6875 32.1473C20.9381 32.1473 18.3367 31.534 15.9785 30.4554H14.2125C6.36602 30.4554 0 36.8214 0 44.6679V49.067C0 51.8693 2.27358 54.1429 5.07589 54.1429H42.2991C45.1014 54.1429 47.375 51.8693 47.375 49.067V44.6679C47.375 36.8214 41.009 30.4554 33.1625 30.4554Z" fill="white"/>
</svg>
